<?xml version="1.0" encoding="UTF-8"?>
<svg id="Layer_1" data-name="Layer 1" xmlns="http://www.w3.org/2000/svg" viewBox="0 0 500 499.86">
  <defs>
    <style>
      .cls-1 {
        fill: #f60;
        stroke-width: 0px;
      }
    </style>
  </defs>
  <path class="cls-1" d="M130.99,318.64c20.83-4.6,35.52-23.26,35.09-44.59,0-18.11-17.07-47.29-59.4-46.34-52.4,1.23-85.36,38.92-86.49,85.55-1.32,58.45,53.58,97.23,109.9,97.89,82.71,1.04,131.75-53.2,131.66-132.7,0-71.93-57.84-141.21-144.61-144.24-47.53-1.66-86.92,11.44-117.14,33.1v53.06c27.21-31.16,66.64-48.94,108.01-48.71,62.94.61,111.46,48.09,111.75,101.72.28,51.31-21.19,88.86-79.31,98.32-31.59,5.06-81.06-13.48-78.88-61.24,1.13-24.64,20.33-38.54,42.28-37.55-21.33,28.94,7.09,50.03,27.14,45.73Z"/>
  <path class="cls-1" d="M423.25,321.57l76.61,39.16v-109.15l-61.48,6.05,61.48-34.1V.33h-123.57c5.25,17.5,22.42,29.98,22.42,59.25,0,40.43-47.81,49.65-48.71,91.08-.85,40.05,29.23,50.08,30.08,83.56.85,33.48-13.34,47.62-13.34,47.62,0,0,7.9-10.03,4.73-34.43-6.86-49.65-53.86-53.39-55.19-96.9-1.13-37.83,25.87-46.44,25.49-80.39-.43-37.36-34.38-50.41-38.31-70.13H0v116.33c35.69-20.27,76.1-30.73,117.14-30.31,121.44,0,198.62,85.12,198.62,191.95s-77.04,180.65-181.26,181.78c-59.63.66-105.79-24.73-134.35-59.21v99.31h328.34l38.4-141.87,33.81,141.87h99.31v-92.88l-76.75-85.41Z"/>
</svg>